<?xml version="1.0" standalone="no"?>
<!DOCTYPE svg PUBLIC "-//W3C//DTD SVG 20010904//EN"
 "http://www.w3.org/TR/2001/REC-SVG-20010904/DTD/svg10.dtd">
<svg version="1.0" xmlns="http://www.w3.org/2000/svg"
 width="512.000000pt" height="512.000000pt" viewBox="0 0 512.000000 512.000000"
 preserveAspectRatio="xMidYMid meet">

<g transform="translate(0.000000,512.000000) scale(0.100000,-0.100000)"
fill="#000000" stroke="none">
<path d="M1665 4611 c-372 -8 -432 -15 -576 -65 -221 -77 -422 -273 -508 -494
-45 -118 -60 -209 -72 -431 -14 -270 -6 -2205 10 -2310 55 -366 255 -626 570
-741 181 -66 149 -65 1466 -65 1279 0 1274 0 1440 52 272 86 477 287 563 553
56 171 55 145 59 1340 3 724 1 1155 -6 1250 -17 227 -57 363 -148 504 -145
224 -370 359 -658 395 -111 14 -1637 22 -2140 12z m1016 -638 c94 -48 147
-144 136 -248 l-5 -50 289 -167 289 -167 55 33 c86 53 163 57 250 14 56 -28
83 -55 113 -113 67 -131 7 -292 -133 -351 l-35 -14 0 -335 0 -334 43 -19 c135
-62 191 -223 121 -352 -74 -138 -248 -180 -373 -89 -23 16 -44 29 -48 29 -5 0
-134 -74 -287 -163 l-280 -162 -1 -80 c-1 -114 -45 -187 -140 -231 -90 -43
-202 -29 -275 34 -61 51 -84 103 -86 192 l-2 75 -288 167 -287 166 -39 -28
c-114 -83 -284 -51 -362 67 -87 132 -29 317 118 378 l36 15 0 335 0 335 -37
15 c-85 36 -144 113 -158 206 -18 124 72 252 197 279 70 15 127 4 193 -35 l55
-33 277 160 c153 88 282 163 286 167 4 5 9 41 11 82 1 45 8 86 19 105 70 132
219 182 348 117z"/>
<path d="M2088 3401 l-288 -166 0 -70 c0 -46 -7 -83 -19 -110 -23 -50 -84
-109 -133 -130 l-38 -15 0 -335 c0 -184 3 -335 8 -335 9 1 764 1310 760 1319
-2 4 -132 -67 -290 -158z"/>
<path d="M2752 3551 c11 -29 754 -1311 761 -1311 4 0 7 151 7 335 l0 335 -37
15 c-50 21 -111 80 -134 130 -12 26 -19 64 -19 110 l-1 70 -283 163 c-155 89
-286 162 -290 162 -4 0 -6 -4 -4 -9z"/>
<path d="M2119 2851 c-205 -356 -377 -654 -383 -663 -8 -13 -5 -22 11 -40 12
-13 29 -40 38 -61 l15 -37 765 0 764 0 19 43 c10 23 26 48 35 56 10 7 17 17
17 21 0 4 -164 292 -365 639 -201 348 -371 644 -379 659 -13 25 -18 27 -90 27
l-75 1 -372 -645z"/>
<path d="M1806 1922 c-3 -4 126 -83 286 -175 l290 -167 29 25 c30 25 114 55
154 55 40 0 124 -30 153 -55 17 -14 33 -25 37 -25 18 0 574 326 571 335 -3 12
-1512 19 -1520 7z"/>
</g>
</svg>
